<svg width="845" height="210" viewBox="0 0 845 210" fill="none" xmlns="http://www.w3.org/2000/svg">
<path d="M299.8 129.8H311.1C312.3 129.8 313 130.4 313.3 131.6C314.8 138.2 320.1 141.4 329.3 141.4C334.2 141.4 338 140.5 340.6 138.6C343.2 136.7 344.5 134.2 344.5 130.9C344.5 125.3 340.6 121.9 332.7 120.6L321.1 118.7C306 116 298.4 108.4 298.4 96.0002C298.4 88.7002 301 83.0002 306.2 78.7002C311.4 74.4002 318.8 72.2002 328.3 72.2002C337.5 72.2002 344.7 74.2002 349.9 78.3002C355.1 82.3002 358 88.2002 358.8 95.9002V96.5002C358.8 97.5002 358.2 98.0002 357 98.0002H345.7C344.6 98.0002 343.9 97.4002 343.6 96.1002C343.1 92.5002 341.6 89.9002 339.1 88.3002C336.6 86.7002 333 85.9002 328.3 85.9002C318.6 85.9002 313.8 89.2002 313.8 95.9002C313.8 98.6002 314.8 100.8 316.8 102.4C318.8 104 322.3 105.2 327.4 106.1L339 108.2C353 110.5 360 117.9 360 130.4C360 138.3 357.3 144.4 351.9 148.7C346.5 153.1 339 155.2 329.4 155.2C320.2 155.2 312.9 153.2 307.5 149.1C302.1 145.1 298.9 139.3 297.9 131.9V131.4C297.8 130.4 298.5 129.8 299.8 129.8V129.8ZM371.9 73.6002H382.3C383.7 73.6002 384.4 74.3002 384.4 75.7002V107H384.9C386.3 104.1 388.6 101.8 391.6 100.2C394.6 98.6002 398.1 97.8002 402 97.8002C408.5 97.8002 413.7 99.8002 417.4 103.9C421.1 107.9 423 113.5 423 120.6V151.6C423 153 422.3 153.7 420.9 153.7H410.6C409.2 153.7 408.5 153 408.5 151.6V124.2C408.5 115.4 404.7 111 397.1 111C393.1 111 390 112.2 387.7 114.6C385.4 117 384.3 120.3 384.3 124.4V151.5C384.3 152.9 383.6 153.6 382.2 153.6H371.8C370.5 153.6 369.9 152.9 369.9 151.5V75.5002C369.9 74.3002 370.6 73.6002 371.9 73.6002V73.6002ZM430.9 126.6C430.9 118.3 433.6 111.4 438.9 106C444.3 100.6 451.2 97.9002 459.7 97.9002C468 97.9002 474.8 100.5 480 105.8C485.2 111.1 487.9 117.9 487.9 126.4V127.9C487.9 129.8 487 130.8 485.2 130.8H445.3C446.5 139.4 451.5 143.7 460.4 143.7C466.6 143.7 470.7 141.8 472.6 138.1C473.2 137 474 136.5 475 136.5H484.6C485.3 136.5 485.8 136.6 486.1 136.9C486.4 137.2 486.6 137.5 486.6 137.8C486.6 138 486.6 138.1 486.5 138.3C485 143.3 481.9 147.4 477.3 150.6C472.7 153.7 467 155.3 460.2 155.3C451.5 155.3 444.4 152.6 439 147.3C433.6 141.9 430.9 135 430.9 126.6V126.6ZM445.5 121.2H473.5C472.2 113.2 467.6 109.2 459.8 109.2C451.8 109.2 447 113.2 445.5 121.2ZM487.4 74.2002C487.7 73.8002 488.2 73.6002 488.9 73.6002H500.9C502 73.6002 502.8 74.2002 503.2 75.3002L520 130.4H520.3L537.3 75.3002C537.5 74.2002 538.2 73.6002 539.5 73.6002H550C551.2 73.6002 551.9 74.2002 552.2 75.3002L569.3 130.4H569.5L586.4 75.3002C586.6 74.2002 587.4 73.6002 588.7 73.6002H600.6C601.3 73.6002 601.7 73.8002 602 74.1002C602.2 74.4002 602.3 74.8002 602.3 75.1002C602.3 75.3002 602.3 75.6002 602.2 75.9002L578 152C577.6 153.1 576.9 153.7 575.7 153.7H564.3C563.1 153.7 562.3 153.1 562 152L544.9 97.8002H544.6L527.5 152C527.2 153.1 526.4 153.7 525.2 153.7H513.7C512.6 153.7 511.8 153.1 511.5 152L487.3 75.9002C487.2 75.6002 487.2 75.3002 487.2 75.1002C487.2 74.7002 487.2 74.4002 487.4 74.2002ZM600.9 126.5C600.9 118.3 603.7 111.5 609.3 106.1C614.9 100.6 621.9 97.9002 630.4 97.9002C638.9 97.9002 645.8 100.6 651.3 106.1C656.8 111.6 659.6 118.4 659.6 126.5C659.6 134.7 656.9 141.5 651.4 146.9C645.8 152.4 638.8 155.1 630.4 155.1C622 155.1 614.9 152.4 609.3 146.9C603.7 141.5 600.9 134.7 600.9 126.5V126.5ZM615.6 126.5C615.6 131 617 134.7 619.7 137.6C622.4 140.6 625.9 142.1 630.3 142.1C634.7 142.1 638.2 140.6 640.9 137.7C643.6 134.8 644.9 131 644.9 126.5C644.9 122 643.6 118.3 640.9 115.4C638.2 112.5 634.7 111 630.3 111C625.9 111 622.3 112.4 619.6 115.4C617 118.3 615.6 122 615.6 126.5ZM668.3 151.7V101.3C668.3 99.9002 668.9 99.2002 670.2 99.2002H680.2C681.6 99.2002 682.3 99.9002 682.3 101.3V109.1H682.5C683.9 105.6 686.1 102.9 689.1 101C692 99.1002 695.4 98.2002 699.1 98.2002C699.9 98.2002 701 98.3002 702.2 98.4002C703.3 98.7002 703.9 99.5002 703.9 100.7V110.3C703.9 111.5 703.3 112.1 702.2 112.1H701.7C701 112 699.9 112 698.4 112C687.9 112 682.7 118.4 682.7 131.1V151.6C682.7 153 682 153.7 680.6 153.7H670.2C668.9 153.7 668.3 153.1 668.3 151.7V151.7ZM710 151.7V75.7002C710 74.3002 710.6 73.6002 711.9 73.6002H722.3C723.7 73.6002 724.4 74.3002 724.4 75.7002V120.4H729.9C731 120.4 731.8 120.4 732.3 120.5L746.1 100.6C746.7 99.8002 747.5 99.3002 748.6 99.3002H761C761.8 99.3002 762.3 99.5002 762.5 99.8002C762.7 100.1 762.7 100.4 762.7 100.5C762.7 100.9 762.5 101.3 762.2 101.6L746.5 124C756 128.9 761.8 138.1 763.8 151.6V152.2C763.8 153.3 763.2 153.8 761.9 153.8H750.8C749.6 153.8 748.9 153.2 748.7 151.9C747.5 145.3 745.2 140.5 742 137.7C738.7 134.9 734 133.5 727.9 133.5H724.4V151.8C724.4 153.2 723.7 153.9 722.3 153.9H711.9C710.6 153.7 710 153.1 710 151.7V151.7ZM768.1 138.1C768.5 137.7 769 137.5 769.7 137.5H780C781 137.5 781.7 138.1 782.2 139.3C783.4 142.7 786.8 144.3 792.5 144.3C799.1 144.3 802.4 142.2 802.4 138C802.4 136.2 801.8 134.9 800.5 134C799.2 133.1 796.9 132.5 793.5 132L784.9 130.9C779.2 130.1 774.9 128.4 772.1 125.6C769.2 122.9 767.8 119.3 767.8 115C767.8 109.8 769.9 105.6 774 102.5C778.1 99.4002 784.1 97.8002 791.9 97.8002C806.3 97.8002 814.3 103.2 815.9 113.9V114.5C815.9 115.6 815.3 116.1 814.1 116.1H804.1C803 116.1 802.2 115.5 801.9 114.3C800.8 110.6 797.5 108.7 791.9 108.7C785.4 108.7 782.1 110.7 782.1 114.8C782.1 116.3 782.8 117.4 784.1 118.2C785.4 119 787.8 119.7 791.2 120.1L799.6 121.2C810.9 122.7 816.6 128.1 816.6 137.3C816.6 142.9 814.5 147.2 810.3 150.3C806.1 153.4 800.1 154.9 792.4 154.9C785.2 154.9 779.5 153.5 775.3 150.8C771.2 148.1 768.7 144.3 767.8 139.4C767.7 139.2 767.7 139.1 767.7 138.9C767.7 138.7 767.8 138.4 768.1 138.1V138.1ZM825.6 145.4C825.6 142.6 826.5 140.3 828.2 138.6C829.9 136.9 832.2 136 835 136C837.8 136 840.1 136.9 841.8 138.6C843.5 140.3 844.4 142.6 844.4 145.4C844.4 148.2 843.5 150.5 841.8 152.2C840 154 837.8 154.8 835 154.8C832.2 154.8 829.9 153.9 828.2 152.2C826.5 150.5 825.6 148.2 825.6 145.4ZM827.2 75.7002C827.2 74.3002 827.8 73.6002 829 73.6002H841C842.3 73.6002 842.9 74.3002 842.9 75.7002L841.5 125.2C841.5 126.5 840.8 127.1 839.4 127.1H830.5C829.1 127.1 828.4 126.5 828.4 125.2L827.2 75.7002V75.7002Z" fill="#474856"/>
<path d="M228.5 74.0999V73.6999C228.5 47.4999 214.5 23.0999 191.8 10.0999C157 -9.90007 112.6 1.99993 92.4 36.6999C86.9 34.0999 80.8 32.6999 74.7 32.6999H74.5C52 32.7999 33.7 51.2999 33.8 73.8999V74.2999C18.3 83.2999 7.19998 98.4999 3.09998 116L2.99998 116.6C2.79998 117.5 2.59998 118.4 2.49998 119.2L2.39998 120.1C2.19998 121.4 1.99998 122.8 1.89998 124.1V124.4C1.79998 124.9 1.79998 125.4 1.79998 125.9C1.79998 126.5 1.69997 127.1 1.69997 127.7C1.69997 128.5 1.59998 129.2 1.59998 130V132.6C1.59998 133.3 1.59997 134.1 1.69997 134.8L1.79998 135.5C4.29998 169.4 32.7 195.8 66.6 195.8H83.1C83.3 195.8 83.5 195.7 83.7 195.5C83.8 195.3 83.9 195.1 83.9 194.9V178.7C83.9 178.5 83.8 178.2 83.6 178.1C83.4 177.9 83.2 177.9 83 177.9H66.7C49.8 177.9 34.1 168.7 25.7 154C19.5 143 17.9 130.2 21.2 118.1C24.5 105.9 32.4 95.7999 43.4 89.4999L51.2 84.9999H51.3L51.6 84.6999C51.7 84.5999 51.9 84.3999 51.9 84.0999V73.0999C52 69.5999 52.9 66.0999 54.5 62.9999C57.3 57.4999 62.1 53.4999 67.9 51.5999C73.8 49.6999 80 50.1999 85.4 53.0999L98.7 59.7999L98.9 59.8999L99.1 59.9999C99.3 60.0999 99.5 60.0999 99.7 59.9999C99.8 59.9999 99.8 59.8999 99.9 59.8999C100 59.7999 100.1 59.6999 100.1 59.5999L107.7 46.4999C117.4 29.1999 135.7 18.3999 155.5 18.3999C185.8 18.4999 210.1 42.4999 210.9 72.7999V83.9999C210.9 84.0999 210.9 84.3999 211.2 84.6999C211.3 84.7999 211.6 84.9999 211.6 84.9999L219.3 89.5999C234.1 97.9999 243.2 113.9 243.1 131C243 143.6 238.1 155.5 229.1 164.4C220.2 173.2 208.4 178.1 195.9 178.1H179.7C179.2 178.1 178.8 178.5 178.8 179V195.1C178.8 195.6 179.2 196 179.7 196H195.6L196.5 195.9C219.5 195.7 240.8 183.3 252.3 163.2C269.9 132 259.3 92.1999 228.5 74.0999V74.0999Z" fill="url(#paint0_linear)"/>
<path d="M138.6 87.2003C114.2 83.1003 91.0999 99.5003 86.9999 124C82.8999 148.5 99.2999 171.6 123.7 175.8V183.1H112.3C112.1 183.1 112 183.2 112 183.4V197.8C112 198 112.1 198.1 112.3 198.1H123.6V209.5C123.6 209.7 123.7 209.8 123.9 209.8H138.2C138.4 209.8 138.5 209.7 138.5 209.5V198H150C150.2 198 150.3 197.9 150.3 197.7V183.3C150.3 183.1 150.2 183 150 183H138.7V175.7C157.5 172.5 172.2 157.7 175.4 138.9C179.5 114.5 163 91.3003 138.6 87.2003V87.2003ZM160.9 131.7C160.7 148.3 147.2 161.5 130.7 161.4C114.2 161.2 101 147.7 101.1 131.1C101.2 114.5 114.8 101.3 131.3 101.4L131.1 101.5C147.6 101.6 160.9 115 160.9 131.5V131.7V131.7Z" fill="url(#paint1_linear)"/>
<defs>
<linearGradient id="paint0_linear" x1="1.45398" y1="98.1109" x2="260.729" y2="98.1109" gradientUnits="userSpaceOnUse">
<stop offset="0.016" stop-color="#FF9940"/>
<stop offset="0.19" stop-color="#FD9047"/>
<stop offset="0.474" stop-color="#F7785A"/>
<stop offset="0.83" stop-color="#EC5078"/>
<stop offset="1" stop-color="#E73B89"/>
</linearGradient>
<linearGradient id="paint1_linear" x1="86.4179" y1="148.073" x2="175.966" y2="148.073" gradientUnits="userSpaceOnUse">
<stop offset="0.016" stop-color="#FF9940"/>
<stop offset="0.19" stop-color="#FD9047"/>
<stop offset="0.474" stop-color="#F7785A"/>
<stop offset="0.83" stop-color="#EC5078"/>
<stop offset="1" stop-color="#E73B89"/>
</linearGradient>
</defs>
</svg>
